# xmcd
#
# Track frame offsets:
# 150
# 23323
# 37224
# 48752
# 59699
# 80159
# 94305
# 110209
# 133571
# 150082
# 163805
# 186630
# 208039
# 234584
# 260682
# 298528
# 324168
#
# Disc length: 4749 seconds
#
#
# Revision: 0
# Processed by: cddbd v1.5.2PL0 Copyright (c) Steve Scherf et al.
# Submitted via: FreeRIP 2.53 
#
DISCID=f5128b11
DTITLE=Diverse - 7e Festival de Boogie Woogie de la Roquebrou 2005
DYEAR=2005
DGENRE=Boogie Woogie
TTITLE0=Specially for Chantal - Jean-Paul Amouroux
TTITLE1=Chicago Breakdown - Rudy Blueshoes
TTITLE2=Freddie's Got The Blues - Martin Pryker
TTITLE3=Drum The Boogie - Martin Pryker
TTITLE4=Bluesin' The Boogie - Jean-Pierre Bertrand
TTITLE5=The Schöne Blaue Boogie - Anke Angel
TTITLE6=Little Angel - Christian Willisohn
TTITLE7=Nasty Boogie Woogie - Mitch Woods
TTITLE8=Pinetop's Boogie Woogie - The Piano Brothers
TTITLE9=Jimmy's Rocks - The Piano Brothers
TTITLE10=Szla Dzieweczka Do Laseczka - The Boogie Boys
TTITLE11=My Piano And I - The Boogie Boys
TTITLE12=Boogie on Sweet Georgia Brown - The International La Roquebrou Boogie Band
TTITLE13=A Lotta What You Got - Dana Gillespie
TTITLE14=Come On If You're Coming - Dana Gillespie
TTITLE15=Boogie Woogie - Linda Hopkins
TTITLE16=What'D I Say - Linda Hopkins
EXTD=BW 15156
EXTT0=
EXTT1=
EXTT2=
EXTT3=
EXTT4=
EXTT5=
EXTT6=
EXTT7=
EXTT8=
EXTT9=
EXTT10=
EXTT11=
EXTT12=
EXTT13=
EXTT14=
EXTT15=
EXTT16=
PLAYORDER=
